<svg xmlns="http://www.w3.org/2000/svg" width="35" height="35" viewBox="0 0 35 35">
  <g id="Group_31" data-name="Group 31" transform="translate(-4.079 -4.079)">
    <path id="Path_1" data-name="Path 1" d="M21.579,7.232c4.673,0,5.226.018,7.071.1a9.686,9.686,0,0,1,3.25.6,5.8,5.8,0,0,1,3.321,3.321,9.686,9.686,0,0,1,.6,3.249c.084,1.845.1,2.4.1,7.072s-.018,5.226-.1,7.071a9.686,9.686,0,0,1-.6,3.25A5.8,5.8,0,0,1,31.9,35.221a9.686,9.686,0,0,1-3.25.6c-1.845.084-2.4.1-7.071.1s-5.226-.018-7.071-.1a9.686,9.686,0,0,1-3.25-.6A5.8,5.8,0,0,1,7.937,31.9a9.686,9.686,0,0,1-.6-3.249c-.084-1.845-.1-2.4-.1-7.072s.018-5.226.1-7.071a9.686,9.686,0,0,1,.6-3.25,5.8,5.8,0,0,1,3.321-3.321,9.686,9.686,0,0,1,3.249-.6c1.845-.084,2.4-.1,7.072-.1m0-3.153c-4.753,0-5.349.02-7.215.105A12.845,12.845,0,0,0,10.116,5,8.949,8.949,0,0,0,5,10.116a12.845,12.845,0,0,0-.813,4.248c-.085,1.866-.105,2.462-.105,7.215s.02,5.349.105,7.215A12.845,12.845,0,0,0,5,33.042a8.949,8.949,0,0,0,5.118,5.118,12.845,12.845,0,0,0,4.248.813c1.866.085,2.462.105,7.215.105s5.349-.02,7.215-.105a12.845,12.845,0,0,0,4.248-.813,8.949,8.949,0,0,0,5.118-5.118,12.845,12.845,0,0,0,.813-4.248c.085-1.866.105-2.462.105-7.215s-.02-5.349-.105-7.215a12.845,12.845,0,0,0-.813-4.248A8.949,8.949,0,0,0,33.042,5a12.845,12.845,0,0,0-4.248-.813c-1.866-.085-2.462-.105-7.215-.105Z" fill="#fff"/>
    <path id="Path_2" data-name="Path 2" d="M134.649,126.635a8.014,8.014,0,1,0,8.014,8.014A8.014,8.014,0,0,0,134.649,126.635Zm0,13.215a5.2,5.2,0,1,1,5.2-5.2A5.2,5.2,0,0,1,134.649,139.85Z" transform="translate(-113.07 -113.07)" fill="#fff"/>
    <circle id="Ellipse_2" data-name="Ellipse 2" cx="2.34" cy="2.34" r="2.34" transform="translate(28.435 10.043)" fill="#fff"/>
  </g>
</svg>
