<svg xmlns="http://www.w3.org/2000/svg" width="45.798" height="32.328" viewBox="0 0 45.798 32.328">
  <path id="Path_4" data-name="Path 4" d="M115.3,5.213a5.391,5.391,0,0,0-3.65-4.169C108.074.088,93.4,0,93.4,0S78.723.088,75.147,1.044A5.4,5.4,0,0,0,71.5,5.213c-.956,3.576-1,10.951-1,10.951s.04,7.375,1,10.951a5.391,5.391,0,0,0,3.65,4.169c3.576.956,18.252,1.044,18.252,1.044s14.676-.088,18.252-1.044a5.391,5.391,0,0,0,3.65-4.169c.956-3.576,1-10.951,1-10.951S116.257,8.789,115.3,5.213ZM88.684,22.9V9.429l12.123,6.735Z" transform="translate(-70.5)" fill="#fff"/>
</svg>
